<?xml version="1.0"?>
<svg xmlns="http://www.w3.org/2000/svg" viewBox="0 0 64 64" width="512" height="512"><g id="Consult-Smartphone"><rect x="7" y="11" width="36" height="42" style="fill:#5aaae7"/><polygon points="43 23 43 53 13 53 43 23" style="fill:#3d9ae2"/><path d="M57,17v8a2.006,2.006,0,0,1-2,2H49l-4,5V27H41a2.006,2.006,0,0,1-2-2V17a2.006,2.006,0,0,1,2-2H55A2.006,2.006,0,0,1,57,17Z" style="fill:#ffd422"/><circle cx="25" cy="32" r="12" style="fill:#e6e7e8"/><path d="M29.95,27.05a2.994,2.994,0,0,1,0,4.24l-2.83,2.83-4.24-4.24,2.83-2.83A3,3,0,0,1,29.95,27.05Z" style="fill:#ffd422"/><path d="M27.12,34.12l-2.83,2.83a3,3,0,1,1-4.24-4.24l2.83-2.83Z" style="fill:#ff5023"/><path d="M43,53v4a4,4,0,0,1-4,4H11a4,4,0,0,1-4-4V53Z" style="fill:#898890"/><path d="M43,7v4H7V7a4,4,0,0,1,4-4H39A4,4,0,0,1,43,7Z" style="fill:#898890"/><path d="M12,32A13,13,0,1,0,25,19,13.015,13.015,0,0,0,12,32Zm24,0A11,11,0,1,1,25,21,11.013,11.013,0,0,1,36,32Z"/><path d="M19.343,32A4,4,0,0,0,25,37.657L30.657,32A4,4,0,0,0,25,26.343Zm4.243,4.243a2,2,0,1,1-2.829-2.829l2.122-2.121,2.828,2.828Zm4.243-9.07a2,2,0,0,1,1.414,3.413l-2.122,2.121-2.828-2.828,2.121-2.122A2,2,0,0,1,27.829,27.173Z"/><path d="M42,52H8V12H44V7a5.006,5.006,0,0,0-5-5H11A5.006,5.006,0,0,0,6,7V57a5.006,5.006,0,0,0,5,5H39a5.006,5.006,0,0,0,5-5V35H42ZM11,4H39a3,3,0,0,1,3,3v3H8V7A3,3,0,0,1,11,4ZM39,60H11a3,3,0,0,1-3-3V54H42v3A3,3,0,0,1,39,60Z"/><rect x="12" y="6" width="2" height="2"/><rect x="16" y="6" width="4" height="2"/><rect x="22" y="56" width="6" height="2"/><path d="M55,14H41a3,3,0,0,0-3,3v8a3,3,0,0,0,3,3h3v4a1,1,0,0,0,.669.944A1.023,1.023,0,0,0,45,33a1,1,0,0,0,.781-.375L49.48,28H55a3,3,0,0,0,3-3V17A3,3,0,0,0,55,14Zm1,11a1,1,0,0,1-1,1H49a1,1,0,0,0-.781.375L46,29.149V27a1,1,0,0,0-1-1H41a1,1,0,0,1-1-1V17a1,1,0,0,1,1-1H55a1,1,0,0,1,1,1Z"/><rect x="47" y="20" width="2" height="2"/><rect x="51" y="20" width="2" height="2"/><rect x="43" y="20" width="2" height="2"/></g></svg>
